<svg version="1.2" xmlns="http://www.w3.org/2000/svg" viewBox="0 0 96 96" width="96" height="96"><style>.a{fill:#d7f0ff}</style><path class="a" d="m86.6 71.4c-2.9 0-4.5 1.2-5.7 2.2-1.2 0.9-2.1 1.6-4 1.6-1.9 0-2.8-0.7-3.9-1.6-1.2-0.9-2.6-2-5.2-2.2l6.3-10.5c0.4-0.6 0.1-1.5-0.5-1.9q-0.5-0.3-0.9-0.2l-25.8 2.7v-4.5l26.1-2.8c0.7-0.1 1.3-0.8 1.3-1.6-0.5-6.5-2.4-12.6-5.4-18.1-2.4-4.4-5.7-8.4-9.6-11.9-6.7-6-13.1-8.5-13.4-8.6-0.7-0.3-1.6 0.1-1.8 0.9q-0.2 0.3-0.1 0.6c0 0.1 0 8.2 0 8.2-4.8 4.5-9 9.5-12.6 14.9-3.8 5.8-7 12.1-9.6 18.8-0.2 0.8 0.1 1.6 0.9 1.9q0.2 0.1 0.5 0.1 0.1 0 0.1 0l20.7-2.1v4.5l-21 2.2c-0.7 0.1-1.3 0.8-1.2 1.6q0 0.1 0 0.3l2.4 6.9c-0.5 0.2-0.8 0.5-1.2 0.8-1.1 0.9-2 1.6-3.9 1.6-1.9 0-2.8-0.7-3.9-1.6-1.3-1-2.8-2.2-5.7-2.2-0.8 0-1.5 0.7-1.5 1.5 0 0.8 0.7 1.4 1.5 1.4 1.9 0 2.8 0.7 3.9 1.6 1.2 1 2.8 2.2 5.7 2.2 2.9 0 4.5-1.2 5.7-2.2 1.1-0.9 2-1.6 3.9-1.6 1.9 0 2.8 0.7 4 1.6 1.2 1 2.8 2.2 5.7 2.2 2.9 0 4.4-1.2 5.7-2.2 1.1-0.9 2-1.6 3.9-1.6 1.9 0 2.8 0.7 3.9 1.6 1.3 1 2.8 2.2 5.7 2.2 3 0 4.5-1.2 5.8-2.2 1.1-0.9 2-1.6 3.9-1.6 1.9 0 2.8 0.7 3.9 1.6 1.3 1 2.8 2.2 5.7 2.2 2.9 0 4.5-1.2 5.7-2.2 1.2-0.9 2-1.6 4-1.6 0.8 0 1.4-0.6 1.4-1.4 0-0.8-0.6-1.5-1.4-1.5zm-29.3-46.7c8.1 7.3 12.8 16.2 13.9 26.7l-22.3 2.5c1.2-2.2 3.1-6.8 3.5-13.4 0.3-4 0.1-8-0.7-11.8-0.7-3.5-1.8-7-3.2-10.2 3.2 1.7 6.1 3.8 8.8 6.2zm-10.4-2.5c3.1 8.5 3.1 15.7 2.4 20.6-0.5 3.7-1.5 6.6-2.2 8.3q-0.1 0.2-0.2 0.4zm-21.5 34.1c4.4-10.9 10.6-20.4 18.6-28.6v26.7z"/></svg>