<svg version="1.2" xmlns="http://www.w3.org/2000/svg" viewBox="0 0 96 96" width="96" height="96">
	<style>
		tspan { white-space:pre } 
		.s0 { fill: #d7f0ff } 
	</style>
	<path fill-rule="evenodd" class="s0" d="m31.52 54.5q-0.23-2.8-0.22-5.53c-0.14-14.83 4.49-29.32 13.22-41.32 1.14-1.51 2.92-2.4 4.81-2.4 1.89 0 3.68 0.89 4.81 2.4 5.91 8 9.95 17.22 11.82 26.98-1.87 1.08-7.53 4.33-9.47 5.45l-2.75 1.6c-0.88-2.07-1.64-5.48-4.41-5.54-3.78 0.04-5.32 8.27-5.59 11.31-2.04 1.16-7.1 4.09-9.21 5.31zm52.39-16.49h-0.01l-5.62 3.25c-1.81 1.05-4.13 0.53-5.33-1.18l-5.8 3.34c1.35 16.77-3.42 34.16-13 46.9-1.13 1.53-2.92 2.42-4.82 2.42-1.9 0-3.69-0.89-4.82-2.42-5.9-8.01-9.93-17.24-11.8-27h-0.01l-2.89 1.67c0.91 1.9 0.2 4.18-1.62 5.24l-5.63 3.25c-2.73 1.53-6.12 1.29-8.62-0.62-2.49-1.91-3.61-5.12-2.83-8.17 0.53-2 1.84-3.7 3.64-4.73l5.63-3.25c1.93-1.12 4.4-0.47 5.53 1.46l1.38 2.38 6.56-3.8 0.25-0.16c9.24-5.31 22.27-12.85 31.51-18.17l4.78-2.75-1.39-2.41q-0.09-0.15-0.16-0.31c-0.89-1.89-0.19-4.16 1.63-5.21l5.62-3.25c3.74-2.14 8.51-0.86 10.68 2.86 2.14 3.74 0.86 8.5-2.86 10.66zm-38.99 18.26c0.88 2.06 1.62 5.51 4.42 5.56 3.79-0.06 5.33-8.28 5.59-11.35zm-22.47-19.06c0.03-0.95-0.26-1.89-0.82-2.66-1.68-2.6-1.68-5.95 0-8.55 1.07-1.61 1.07-3.71 0-5.32-0.85-1.26-1.29-2.75-1.26-4.27-0.03-1.52 0.41-3.02 1.26-4.27 0.56-0.78 0.85-1.71 0.82-2.66 0.02-0.86 0.71-1.54 1.56-1.54 0.85 0 1.55 0.68 1.56 1.54h0.01c0.07 3.7-1.96 3.81-2.08 6.93-0.03 0.95 0.26 1.88 0.81 2.66 0.85 1.26 1.29 2.75 1.26 4.27 0.03 1.51-0.41 3.01-1.26 4.27-1.06 1.62-1.06 3.71 0 5.33 0.85 1.26 1.29 2.75 1.26 4.27h0.01c0.07 3.71-1.96 3.83-2.08 6.95-0.02 0.85-0.72 1.53-1.57 1.53-0.85 0-1.54-0.68-1.56-1.53-0.08-3.72 1.95-3.83 2.08-6.95zm-12.69 18.11c-0.84 0-1.54-0.68-1.56-1.53h0.01c-0.08-3.96 2.1-4.07 2.22-7.43-0.12-3.36-2.3-3.47-2.22-7.43-0.08-3.97 2.1-4.08 2.22-7.43 0.03-1.04-0.28-2.07-0.89-2.91-0.9-1.33-1.37-2.91-1.34-4.52-0.03-1.6 0.44-3.18 1.34-4.51 0.61-0.85 0.92-1.87 0.89-2.91 0.02-0.85 0.71-1.53 1.57-1.53 0.85 0 1.54 0.68 1.56 1.53h-0.01c0.08 3.96-2.1 4.07-2.22 7.42-0.03 1.04 0.28 2.06 0.89 2.91 1.78 2.75 1.78 6.29 0 9.03-1.17 1.77-1.17 4.06 0 5.83 1.78 2.75 1.78 6.29 0 9.04-0.61 0.85-0.92 1.87-0.89 2.91-0.02 0.85-0.71 1.53-1.57 1.53zm64.34 8.04c-0.01 0.87 0.25 1.71 0.75 2.42 1.59 2.45 1.59 5.6 0 8.05-0.97 1.47-0.97 3.38 0 4.85 1.59 2.45 1.59 5.61 0 8.06-0.5 0.7-0.76 1.56-0.75 2.42-0.01 0.86-0.71 1.53-1.56 1.53-0.85 0-1.54-0.67-1.56-1.53-0.02-1.43 0.39-2.84 1.19-4.03 0.97-1.47 0.97-3.37 0-4.85-1.58-2.45-1.58-5.6 0-8.05 0.5-0.71 0.77-1.56 0.75-2.43v0.01c-0.14-2.87-2.01-2.99-1.94-6.45-0.07-3.45 1.8-3.58 1.94-6.44 0.01-0.85 0.71-1.53 1.56-1.53 0.85 0 1.54 0.68 1.56 1.53 0.08 3.45-1.8 3.57-1.94 6.44zm10.69-11.36c-0.02 0.8 0.22 1.59 0.69 2.24 1.51 2.34 1.51 5.35 0 7.69-0.9 1.35-0.9 3.11 0 4.46 1.51 2.34 1.51 5.34 0 7.68-0.47 0.65-0.71 1.44-0.69 2.23-0.02 0.86-0.71 1.54-1.56 1.54-0.86 0-1.55-0.68-1.57-1.54-0.02-1.36 0.38-2.7 1.14-3.84 0.9-1.35 0.9-3.11 0-4.46-1.51-2.34-1.51-5.34 0-7.68 0.47-0.65 0.71-1.44 0.69-2.23-0.13-2.68-1.9-2.83-1.83-6.09-0.07-3.26 1.7-3.41 1.83-6.09 0.01-0.85 0.71-1.53 1.56-1.53 0.85 0 1.54 0.68 1.56 1.53 0.08 3.27-1.7 3.41-1.82 6.09z"/>
</svg>