<svg version="1.2" xmlns="http://www.w3.org/2000/svg" viewBox="0 0 96 96" width="96" height="96">
	<style>
		tspan { white-space:pre } 
		.s0 { fill: #d7f0ff } 
	</style>
	<path class="s0" d="m63.92 84v9.48c0 0.33-0.27 0.6-0.6 0.6h-30.64c-0.33 0-0.6-0.27-0.6-0.6v-9.48c-0.02-3.39 1.06-6.7 3.06-9.44 2-2.74 4.84-4.76 8.08-5.77q0.08-0.01 0.16 0v-0.12q-0.01-0.05 0-0.1-0.95-0.7-1.64-1.66l-2.89-4.06h-0.52c-1.24 0-2.25-1.01-2.25-2.25v-1.5c-0.01-0.83 0.43-1.6 1.16-2-1.14-1.62-3.55-5.81-1.18-9.5 3.76-5.84 13.54-3.46 16.69-2.51-0.12-0.69 0.02-1.41 0.4-2 0.31-0.4 0.8-0.61 1.3-0.56 0.96 0.11 1.77 0.78 2.06 1.71q0.29-0.37 0.7-0.62c0.67-0.35 1.48-0.35 2.15 0 0.64 0.21 1.1 0.76 1.21 1.43 0.13 1.08-0.86 2.16-1.5 2.74 1 1.41 3.37 5.63 0.29 9.84 0.33 0.4 0.52 0.9 0.52 1.42v1.48c0 1.24-1.01 2.25-2.25 2.25h-0.52l-2.89 4.06q-0.7 0.97-1.66 1.68 0.02 0.1 0 0.19h0.1c3.28 0.99 6.15 3.01 8.18 5.77 2.03 2.75 3.11 6.1 3.08 9.52zm-15.92-15.09c2.09 0 4.05-1.01 5.27-2.72l3.06-4.31c0.11-0.16 0.29-0.25 0.49-0.25h0.83c0.28 0.02 0.56-0.09 0.76-0.29 0.2-0.2 0.3-0.48 0.29-0.76v-1.48q0-0.42-0.3-0.72-0.14-0.03-0.25-0.12-0.06-0.05-0.1-0.12-0.21-0.09-0.44-0.09c-2.41 0-3.85-2.27-4.32-3.17h-8.53c-1.44 0.01-2.61 1.15-2.65 2.59-0.01 0.32-0.28 0.58-0.6 0.58h-3.16c-0.28-0.01-0.56 0.09-0.76 0.29-0.2 0.2-0.31 0.48-0.29 0.76v1.48c-0.02 0.28 0.09 0.56 0.29 0.76 0.2 0.2 0.48 0.31 0.76 0.29h0.83c0.19 0 0.38 0.09 0.49 0.25l3.06 4.31c1.22 1.71 3.18 2.72 5.27 2.72zm-9.47-12.06h2.47c0.34-1.83 1.94-3.16 3.8-3.17h8.9c0.24 0 0.46 0.14 0.55 0.36 0 0 1.24 2.81 3.41 2.81q0.38 0.01 0.74 0.14c3.21-4.37-0.41-8.66-0.57-8.85q-0.17-0.2-0.15-0.45 0.03-0.26 0.23-0.42c0.64-0.49 1.56-1.48 1.5-2q0-0.27-0.51-0.48c-0.32-0.2-0.72-0.23-1.07-0.07-0.47 0.41-0.76 0.98-0.83 1.6-0.03 0.31-0.3 0.54-0.61 0.53-0.31-0.01-0.57-0.25-0.59-0.56 0-0.64-0.4-2.48-1.37-2.52-0.22 0-0.29 0.06-0.31 0.1-0.23 0.65-0.23 1.35 0 2 0.06 0.22 0 0.45-0.17 0.6-0.17 0.15-0.4 0.2-0.61 0.13-0.12-0.05-12.36-4.34-16.25 1.71-2.18 3.38 0.7 7.57 1.44 8.54zm9.47 8.61c-1.99-0.01-3.6-1.62-3.6-3.61 0-0.33 0.27-0.6 0.6-0.6 0.33 0 0.6 0.27 0.6 0.6 0 1.33 1.08 2.4 2.4 2.4 1.32 0 2.4-1.07 2.4-2.4 0-0.33 0.27-0.6 0.6-0.6 0.33 0 0.6 0.27 0.6 0.6 0 1.99-1.61 3.6-3.6 3.61zm-3.42 3.83v3.09c0 1.89 1.53 3.42 3.42 3.42 1.89 0 3.42-1.53 3.42-3.42v-3.09c-2.15 1.09-4.69 1.09-6.84 0zm18.14 14.71c0.01-3.1-0.95-6.13-2.77-8.64-1.81-2.52-4.38-4.39-7.33-5.36v2.38c0 2.55-2.07 4.62-4.62 4.62-2.55 0-4.62-2.07-4.62-4.62v-2.38c-2.95 0.97-5.52 2.84-7.33 5.36-1.82 2.51-2.78 5.54-2.77 8.64v8.88h29.44zm-4.3-3.42v4.22c-0.1 2.02-1.77 3.61-3.81 3.61-2.02 0-3.7-1.59-3.8-3.61v-4.25c0-0.33 0.27-0.6 0.6-0.6h6.41c0.33 0 0.6 0.27 0.6 0.6zm-1.2 0.6h-5.22v3.62c0.09 1.38 1.23 2.45 2.61 2.45 1.38 0 2.52-1.07 2.61-2.45zm-23.34-41.18c1.96-3.73 5.32-6.54 9.34-7.82q0.08-0.01 0.16 0v-0.18q-0.01-0.05 0-0.1-0.95-0.7-1.65-1.66l-2.89-4.06h-0.52c-1.2-0.01-2.19-0.97-2.22-2.18v-1.52c0-0.81 0.44-1.55 1.16-1.94-1.14-1.63-3.55-5.81-1.18-9.5 3.76-5.84 13.54-3.47 16.69-2.52-0.13-0.69 0.02-1.4 0.4-2 0.31-0.38 0.8-0.57 1.29-0.52 0.97 0.11 1.78 0.79 2.07 1.72q0.29-0.38 0.7-0.63c0.67-0.35 1.47-0.35 2.15 0 0.64 0.22 1.1 0.77 1.21 1.43 0.12 1.08-0.86 2.16-1.5 2.74 1 1.41 3.37 5.63 0.28 9.84v0.01c0.34 0.39 0.52 0.89 0.52 1.41v1.48c0 1.25-1 2.25-2.25 2.25h-0.52l-2.89 4.06q-0.69 0.98-1.66 1.69 0.02 0.1 0 0.2h0.11c3.55 1.1 6.6 3.4 8.62 6.52q0.14 0.2 0.09 0.45-0.06 0.24-0.27 0.37-0.14 0.1-0.32 0.1-0.32-0.01-0.5-0.26c-1.83-2.81-4.55-4.9-7.73-5.95v2.38c0 2.55-2.06 4.62-4.61 4.62-2.55 0-4.62-2.07-4.62-4.62v-2.43c-3.6 1.24-6.58 3.8-8.34 7.16-0.11 0.2-0.31 0.33-0.54 0.34q-0.14-0.01-0.27-0.07-0.23-0.11-0.33-0.34-0.08-0.23 0.02-0.47zm14.12-7.71c2.09 0 4.05-1.01 5.27-2.72l3.05-4.3c0.12-0.16 0.3-0.26 0.5-0.25h0.82c0.28 0.01 0.55-0.09 0.75-0.29q0.31-0.3 0.31-0.73v-1.52q-0.01-0.42-0.31-0.71-0.14-0.04-0.25-0.13-0.04-0.04-0.08-0.1-0.21-0.1-0.45-0.11c-2.41 0-3.86-2.27-4.32-3.17l-8.53 0.01c-1.44 0-2.62 1.15-2.65 2.59-0.02 0.32-0.28 0.57-0.6 0.57h-3.16q-0.44-0.01-0.76 0.3c-0.2 0.2-0.31 0.47-0.29 0.75v1.52q0 0.43 0.31 0.73c0.2 0.19 0.46 0.29 0.74 0.27h0.83c0.19 0 0.38 0.1 0.49 0.25l3.06 4.31c1.21 1.71 3.17 2.73 5.27 2.73zm-9.48-12.05h2.48c0.34-1.83 1.93-3.16 3.8-3.17h8.9c0.23 0 0.45 0.14 0.55 0.36 0 0 1.23 2.81 3.41 2.81q0.38 0.01 0.73 0.14c3.22-4.37-0.41-8.66-0.57-8.85v0.01q-0.16-0.2-0.14-0.46 0.03-0.25 0.23-0.42c0.64-0.48 1.56-1.48 1.5-2q-0.02-0.25-0.52-0.46c-0.32-0.21-0.72-0.24-1.07-0.07-0.46 0.4-0.75 0.96-0.82 1.57 0 0.34-0.27 0.6-0.6 0.6-0.33 0-0.6-0.26-0.6-0.6 0-0.64-0.4-2.48-1.37-2.52-0.22 0-0.29 0.06-0.31 0.11-0.23 0.64-0.23 1.35 0 2 0.06 0.21-0.01 0.44-0.17 0.59-0.17 0.16-0.4 0.2-0.61 0.14-0.12-0.09-12.34-4.39-16.25 1.66-2.18 3.39 0.7 7.59 1.43 8.56zm13.08 4.99c0-0.33-0.27-0.6-0.6-0.6-0.34 0-0.6 0.27-0.6 0.6 0 1.33-1.08 2.4-2.4 2.4-1.33 0-2.4-1.07-2.4-2.4 0-0.33-0.27-0.6-0.6-0.6-0.34 0-0.6 0.27-0.6 0.6 0 1.99 1.61 3.6 3.6 3.6 1.99 0 3.6-1.61 3.6-3.6zm-7.03 7.44v3.1c0 1.88 1.54 3.41 3.43 3.41 1.89 0 3.42-1.53 3.42-3.41v-3.09c-2.15 1.09-4.69 1.09-6.85-0.01zm48.43 40.53v9.48c0 0.34-0.27 0.61-0.61 0.61h-23.27c-0.33 0-0.6-0.27-0.6-0.61 0-0.33 0.27-0.6 0.6-0.6h22.68v-8.88c0.01-3.1-0.96-6.12-2.77-8.64-1.81-2.52-4.38-4.39-7.32-5.36v2.41c0.06 1.26-0.41 2.49-1.28 3.41-0.88 0.91-2.08 1.43-3.35 1.43-1.26 0-2.47-0.52-3.35-1.43-0.87-0.92-1.33-2.15-1.27-3.41v-2.38c-2.6 0.87-4.91 2.43-6.66 4.53-1.76 2.1-2.9 4.65-3.29 7.35-0.05 0.3-0.3 0.52-0.59 0.52h-0.1q-0.24-0.03-0.39-0.22-0.14-0.2-0.11-0.45c0.43-2.97 1.68-5.76 3.63-8.05 1.94-2.3 4.48-4 7.35-4.91q0.07-0.01 0.16 0v-0.12q-0.01-0.05 0-0.09-0.95-0.71-1.64-1.66l-2.82-4.07h-0.52c-1.25 0-2.25-1.01-2.25-2.25v-1.48c0-0.81 0.45-1.55 1.16-1.95-1.14-1.62-3.55-5.81-1.18-9.5 3.71-5.88 13.49-3.45 16.64-2.5-0.12-0.7 0.02-1.41 0.4-2 0.31-0.4 0.8-0.6 1.3-0.56 0.96 0.12 1.77 0.79 2.07 1.72q0.28-0.39 0.69-0.63c0.67-0.35 1.47-0.35 2.15 0 0.63 0.22 1.1 0.77 1.21 1.43 0.13 1.08-0.86 2.16-1.5 2.74 1 1.41 3.37 5.63 0.29 9.84v0.01c0.33 0.39 0.52 0.89 0.54 1.4v1.48c0 1.24-1.01 2.25-2.25 2.25h-0.52l-0.38 0.53q-0.15 0.2-0.39 0.25-0.24 0.03-0.44-0.11c-0.27-0.19-0.34-0.56-0.15-0.84l0.56-0.78c0.11-0.15 0.29-0.25 0.49-0.25h0.83q0.41 0 0.7-0.29 0.29-0.29 0.3-0.71v-1.53c0-0.26-0.1-0.53-0.29-0.72q-0.15-0.02-0.26-0.12-0.07-0.05-0.11-0.13-0.21-0.07-0.43-0.07c-2.41 0-3.85-2.27-4.32-3.18h-8.5c-1.44 0.01-2.62 1.16-2.65 2.59-0.01 0.33-0.28 0.59-0.6 0.59h-3.16c-0.56 0-1.02 0.44-1.05 1v1.48c0.03 0.55 0.49 0.99 1.05 1h0.83c0.19-0.01 0.38 0.08 0.49 0.25l3.07 4.3c1.21 1.71 3.17 2.72 5.26 2.72 2.09 0 4.05-1.01 5.27-2.72l0.5-0.71c0.19-0.27 0.57-0.34 0.85-0.15 0.27 0.2 0.34 0.58 0.15 0.85l-0.5 0.71q-0.71 0.97-1.67 1.68 0.01 0.09 0 0.18h0.1c3.27 1 6.13 3.03 8.16 5.8 2.02 2.76 3.1 6.1 3.06 9.52zm-13.53-22.12h0.01c0 1.33-1.08 2.4-2.41 2.4-1.32 0-2.39-1.07-2.39-2.4 0-0.33-0.27-0.6-0.61-0.6-0.32 0-0.59 0.27-0.59 0.6 0 1.99 1.61 3.6 3.59 3.6 1.99 0 3.61-1.61 3.61-3.6 0-0.33-0.27-0.6-0.61-0.6-0.32 0-0.59 0.27-0.6 0.6zm1.04 10.53v-3.09c-2.15 1.1-4.7 1.1-6.85 0v3.09c-0.05 0.93 0.29 1.85 0.93 2.54 0.65 0.68 1.55 1.07 2.49 1.07 0.94 0 1.84-0.39 2.49-1.07 0.65-0.69 0.99-1.61 0.94-2.54zm-46.94 10.14c-0.28-2.83-1.37-5.52-3.14-7.74-1.78-2.23-4.16-3.89-6.86-4.78v2.37c0.06 1.27-0.41 2.5-1.28 3.41-0.87 0.92-2.08 1.44-3.35 1.44-1.26 0-2.47-0.52-3.35-1.44-0.87-0.91-1.33-2.14-1.27-3.41v-2.37c-2.95 0.96-5.52 2.83-7.34 5.34-1.82 2.51-2.79 5.53-2.78 8.63v8.88h24.53c0.34 0 0.61 0.27 0.61 0.6 0 0.33-0.27 0.6-0.61 0.6h-25.13c-0.33 0-0.6-0.27-0.6-0.6v-9.48c-0.02-3.39 1.05-6.7 3.06-9.44 2-2.73 4.83-4.75 8.08-5.76q0.07-0.01 0.15 0v-0.12q-0.01-0.05 0-0.1-0.95-0.71-1.65-1.66l-2.88-4.05h-0.52l-0.01-0.01c-1.23 0-2.23-1.01-2.23-2.25v-1.48c0-0.81 0.45-1.55 1.16-1.95-1.16-1.62-3.54-5.81-1.16-9.5 3.76-5.84 13.53-3.46 16.69-2.51-0.12-0.69 0.02-1.4 0.38-2 0.32-0.39 0.82-0.59 1.32-0.55 0.96 0.11 1.77 0.78 2.05 1.71q0.3-0.37 0.7-0.62c0.68-0.35 1.48-0.35 2.16 0 0.63 0.21 1.1 0.77 1.21 1.43 0.12 1.08-0.86 2.16-1.5 2.74 1 1.41 3.36 5.63 0.28 9.84h-0.01c0.34 0.4 0.53 0.9 0.54 1.42v1.48c0 1.25-1.01 2.25-2.25 2.25h-0.52l-0.62 0.87c-0.2 0.28-0.58 0.35-0.85 0.16-0.28-0.19-0.35-0.57-0.15-0.85l0.8-1.13c0.11-0.16 0.29-0.25 0.48-0.25h0.84c0.55 0 1.02-0.44 1.05-1v-1.54q-0.01-0.42-0.3-0.72-0.15-0.03-0.25-0.12-0.06-0.05-0.11-0.12-0.21-0.09-0.43-0.09c-2.42 0-3.85-2.27-4.32-3.17h-8.51c-1.46-0.02-2.66 1.14-2.68 2.59q-0.01 0.24-0.18 0.42-0.18 0.16-0.43 0.16h-3.12c-0.56 0-1 0.45-1 1v1.48c0 0.27 0.1 0.52 0.29 0.71q0.29 0.29 0.71 0.29h0.83c0.19 0 0.37 0.1 0.49 0.25l3.05 4.31c1.22 1.71 3.18 2.72 5.27 2.72 2.09 0 4.05-1.01 5.27-2.72l0.55-0.77c0.19-0.26 0.56-0.32 0.84-0.14 0.26 0.2 0.32 0.57 0.14 0.84l-0.55 0.77q-0.69 1.03-1.66 1.78 0.01 0.09 0 0.18h0.1c3 0.92 5.66 2.71 7.65 5.14 1.99 2.43 3.21 5.4 3.51 8.52 0.02 0.33-0.22 0.62-0.55 0.65h-0.05c-0.31 0-0.56-0.23-0.59-0.54zm-11.23-10.14v-3.09c-2.16 1.1-4.7 1.1-6.85 0v3.09c-0.06 0.93 0.28 1.85 0.93 2.54 0.65 0.68 1.55 1.07 2.49 1.07 0.94 0 1.84-0.39 2.49-1.07 0.65-0.69 0.99-1.61 0.94-2.54zm65.16 12.39v-4.22c0-0.33-0.27-0.6-0.6-0.6h-6.4c-0.34 0-0.6 0.27-0.6 0.6v4.22c0 2.1 1.7 3.8 3.8 3.8 2.09 0 3.8-1.7 3.8-3.8zm-66.18-22.92c0 1.33-1.08 2.4-2.4 2.4-1.33 0-2.4-1.07-2.4-2.4 0-0.33-0.27-0.6-0.6-0.6-0.33 0-0.6 0.27-0.6 0.6 0 1.99 1.61 3.6 3.6 3.6 1.99 0 3.6-1.61 3.6-3.6 0-0.33-0.27-0.6-0.6-0.6-0.33 0-0.6 0.27-0.6 0.6zm7.42 18.1h-6.42c-0.32 0-0.59 0.27-0.59 0.6v4.22c-0.06 1.05 0.32 2.07 1.04 2.82 0.72 0.76 1.72 1.19 2.76 1.19 1.04 0 2.04-0.43 2.76-1.19 0.72-0.75 1.1-1.77 1.05-2.82v-4.22c0-0.33-0.27-0.6-0.6-0.6z"/>
</svg>