<svg version="1.2" xmlns="http://www.w3.org/2000/svg" viewBox="0 0 96 96" width="96" height="96"><style>.a{fill:#d7f0ff}</style><path class="a" d="m84.7 12.1v6c0 0.4-0.4 0.8-0.8 0.8-1.7 0-3 1.3-3 3 0 1.6 1.3 3 3 3 0.4 0 0.8 0.3 0.8 0.8v5.5c0 0.4-0.4 0.8-0.8 0.8-1.7 0-3 1.3-3 2.9 0 1.7 1.3 3 3 3 0.4 0 0.8 0.4 0.8 0.8v5.5c0 0.5-0.4 0.8-0.8 0.8-1.7 0-3 1.4-3 3 0 1.6 1.3 3 3 3 0.4 0 0.8 0.3 0.8 0.8v5.5c0 0.4-0.4 0.8-0.8 0.8-1.7 0-3 1.3-3 3 0 1.6 1.3 2.9 3 2.9 0.4 0 0.8 0.4 0.8 0.8v5.5c0 0.5-0.4 0.9-0.8 0.9-1.7 0-3 1.3-3 2.9 0 1.7 1.3 3 3 3 0.4 0 0.8 0.4 0.8 0.8v6c0 0.4-0.4 0.8-0.8 0.8h-6c-0.4 0-0.8-0.4-0.8-0.8 0-1.7-1.3-3-3-3-1.6 0-2.9 1.3-2.9 3 0 0.4-0.4 0.8-0.8 0.8h-5.5c-0.5 0-0.8-0.4-0.8-0.8 0-1.7-1.4-3-3-3-1.7 0-3 1.3-3 3 0 0.4-0.4 0.8-0.8 0.8h-5.5c-0.5 0-0.8-0.4-0.8-0.8 0-1.7-1.4-3-3-3-1.6 0-3 1.3-3 3 0 0.4-0.3 0.8-0.8 0.8h-5.5c-0.4 0-0.8-0.4-0.8-0.8 0-1.7-1.3-3-3-3-1.6 0-2.9 1.3-2.9 3 0 0.4-0.4 0.8-0.8 0.8h-5.5c-0.5 0-0.9-0.4-0.9-0.8 0-1.7-1.3-3-2.9-3-1.7 0-3 1.3-3 3 0 0.4-0.4 0.8-0.8 0.8h-6c-0.4 0-0.8-0.4-0.8-0.8v-6c0-0.4 0.4-0.8 0.8-0.8 1.7 0 3-1.3 3-3 0-1.6-1.3-2.9-3-2.9-0.4 0-0.8-0.4-0.8-0.9v-5.5c0-0.4 0.4-0.8 0.8-0.8 1.7 0 3-1.3 3-2.9 0-1.7-1.3-3-3-3-0.4 0-0.8-0.4-0.8-0.8v-5.5c0-0.5 0.4-0.8 0.8-0.8 1.7 0 3-1.4 3-3 0-1.6-1.3-3-3-3-0.4 0-0.8-0.3-0.8-0.8v-5.5c0-0.4 0.4-0.8 0.8-0.8 1.7 0 3-1.3 3-3 0-1.6-1.3-3-3-3-0.4 0-0.8-0.3-0.8-0.8v-5.5c0-0.4 0.4-0.8 0.8-0.8 1.7 0 3-1.3 3-2.9 0-1.7-1.3-3-3-3-0.4 0-0.8-0.4-0.8-0.8v-6c0-0.4 0.4-0.8 0.8-0.8h6c0.4 0 0.8 0.4 0.8 0.8 0 1.7 1.3 3 3 3 1.6 0 2.9-1.3 2.9-3 0-0.4 0.4-0.8 0.9-0.8h5.5c0.4 0 0.8 0.4 0.8 0.8 0 1.7 1.3 3 2.9 3 1.7 0 3-1.3 3-3 0-0.4 0.4-0.8 0.8-0.8h5.5c0.5 0 0.8 0.4 0.8 0.8 0 1.7 1.4 3 3 3 1.6 0 3-1.3 3-3 0-0.4 0.3-0.8 0.8-0.8h5.5c0.4 0 0.8 0.4 0.8 0.8 0 1.7 1.3 3 3 3 1.6 0 3-1.3 3-3 0-0.4 0.3-0.8 0.8-0.8h5.5c0.4 0 0.8 0.4 0.8 0.8 0 1.7 1.3 3 2.9 3 1.7 0 3-1.3 3-3 0-0.4 0.4-0.8 0.8-0.8h6c0.4 0 0.8 0.4 0.8 0.8zm-1.6 5.3v-4.5h-4.5c-0.3 2.2-2.2 3.8-4.5 3.8-2.2 0-4.1-1.6-4.5-3.8h-4c-0.4 2.2-2.3 3.8-4.5 3.8-2.3 0-4.2-1.6-4.5-3.8h-4.1c-0.4 2.2-2.2 3.8-4.5 3.8-2.2 0-4.1-1.6-4.5-3.8h-4.1c-0.3 2.2-2.2 3.8-4.5 3.8-2.2 0-4.1-1.6-4.5-3.8h-4c-0.4 2.2-2.3 3.8-4.5 3.8-2.3 0-4.1-1.6-4.5-3.8h-4.5v4.5c2.2 0.4 3.8 2.2 3.8 4.5 0 2.2-1.6 4.1-3.8 4.5v4c2.2 0.4 3.8 2.3 3.8 4.5 0 2.3-1.6 4.2-3.8 4.5v4.1c2.2 0.4 3.8 2.3 3.8 4.5 0 2.3-1.6 4.1-3.8 4.5v4.1c2.2 0.3 3.8 2.2 3.8 4.5 0 2.2-1.6 4.1-3.8 4.5v4c2.2 0.4 3.8 2.3 3.8 4.5 0 2.3-1.6 4.2-3.8 4.5v4.5h4.5c0.4-2.2 2.2-3.8 4.5-3.8 2.2 0 4.1 1.6 4.5 3.8h4c0.4-2.2 2.3-3.8 4.5-3.8 2.3 0 4.2 1.6 4.5 3.8h4.1c0.4-2.2 2.3-3.8 4.5-3.8 2.3 0 4.1 1.6 4.5 3.8h4.1c0.3-2.2 2.2-3.8 4.5-3.8 2.2 0 4.1 1.6 4.5 3.8h4c0.4-2.2 2.3-3.8 4.5-3.8 2.3 0 4.2 1.6 4.5 3.8h4.5v-4.5c-2.2-0.3-3.8-2.2-3.8-4.5 0-2.2 1.6-4.1 3.8-4.5v-4c-2.2-0.4-3.8-2.3-3.8-4.5 0-2.3 1.6-4.2 3.8-4.5v-4.1c-2.2-0.4-3.8-2.3-3.8-4.5 0-2.3 1.6-4.1 3.8-4.5v-4.1c-2.2-0.3-3.8-2.2-3.8-4.5 0-2.2 1.6-4.1 3.8-4.5v-4c-2.2-0.4-3.8-2.3-3.8-4.5 0-2.3 1.6-4.2 3.8-4.5zm-6.6 2.9v55.4c0 0.5-0.3 0.8-0.8 0.8h-55.4c-0.5 0-0.8-0.3-0.8-0.8v-55.4c0-0.5 0.3-0.8 0.8-0.8h55.4c0.5 0 0.8 0.3 0.8 0.8zm-1.6 0.8h-53.8v53.8h53.8zm-13.4 3.2c-0.3-0.3-0.3-0.7 0-1 0.3-0.3 0.7-0.3 1 0 0.3 0.3 0.3 0.7 0 1-0.3 0.3-0.7 0.3-1 0zm3.4 0.3h6.5v2.1c0 0.5 0.4 0.8 0.8 0.8 0.5 0 0.8-0.3 0.8-0.8v-2.9c0-0.4-0.3-0.8-0.8-0.8h-7.3c-0.5 0-0.8 0.4-0.8 0.8 0 0.5 0.3 0.8 0.8 0.8zm-10.4 0h4.4c0.4 0 0.8-0.3 0.8-0.8 0-0.4-0.4-0.8-0.8-0.8h-4.4c-0.4 0-0.8 0.4-0.8 0.8 0 0.5 0.4 0.8 0.8 0.8zm-30.7 48.5h8.7c0.4 0 0.8-0.4 0.8-0.8 0-0.5-0.4-0.8-0.8-0.8h-7.9v-1.4c0-0.4-0.4-0.8-0.8-0.8-0.5 0-0.8 0.4-0.8 0.8v2.2c0 0.4 0.3 0.8 0.8 0.8zm15.1-1.6h-2.4c-0.4 0-0.8 0.3-0.8 0.8 0 0.4 0.4 0.8 0.8 0.8h2.4c0.5 0 0.8-0.4 0.8-0.8 0-0.5-0.3-0.8-0.8-0.8zm-15.3-23.4q0-0.1 0-0.1 0-0.1 0-0.2 0-0.1 0.1-0.2 0 0 0-0.1 0 0 0.1 0 0-0.1 0.1-0.2 0 0 0.1 0 0.1-0.1 0.2-0.1 0 0 0 0c0.8-0.2 1.2-0.6 1.9-1.5 1.1-1.5 2.6-3.5 7.2-4.5q1.2-0.3 2.3-0.3-0.4-1-0.8-2.3c-1.4-4.5-0.4-6.8 0.3-8.4 0.4-1.1 0.7-1.7 0.4-2.4q0-0.1 0-0.3 0 0 0 0 0-0.1 0-0.2 0-0.1 0-0.1 0.1 0 0.1-0.1 0-0.1 0.1-0.2 0.1 0 0.2 0 0-0.1 0.1-0.1 0 0 0 0 0.3-0.1 0.6 0 0.2 0.1 0.3 0.2c0.5 0.6 1.1 0.7 2.2 0.9 1.8 0.2 4.3 0.5 7.5 4q0.8 0.9 1.5 1.8 0.6-0.9 1.4-1.8c3.2-3.5 5.7-3.8 7.5-4 1.2-0.1 1.8-0.2 2.3-0.8q0 0 0 0c0.2-0.2 0.4-0.3 0.6-0.3q0.1 0 0.2 0.1 0.1 0 0.1 0 0 0 0.1 0 0.1 0.1 0.1 0.1 0 0 0 0 0.1 0.1 0.2 0.2 0 0 0 0.1 0 0 0 0.1 0.1 0.1 0.1 0.2 0 0 0 0 0 0.2-0.1 0.3 0 0 0 0c-0.2 0.7 0 1.3 0.4 2.4 0.8 1.6 1.7 3.9 0.3 8.4q-0.4 1.2-0.9 2.2 1.1 0.1 2.3 0.4c4.7 1 6.2 3 7.3 4.5 0.6 0.9 1 1.4 1.8 1.5q0 0 0 0 0.2 0.1 0.3 0.2 0 0 0 0 0.1 0 0.2 0.1 0 0.1 0 0.1 0 0 0 0 0.1 0.1 0.1 0.3 0 0 0 0.1 0 0.1 0 0.2 0 0 0 0 0 0.2-0.1 0.3 0 0-0.1 0 0 0.1-0.1 0.2 0 0-0.1 0-0.1 0.1-0.2 0.1 0 0 0 0c-0.8 0.2-1.2 0.6-1.9 1.5-1.1 1.5-2.6 3.5-7.2 4.5q-1.2 0.2-2.3 0.3 0.4 1 0.8 2.2c1.4 4.5 0.4 6.8-0.3 8.5-0.4 1.1-0.6 1.6-0.4 2.4q0 0 0 0 0.1 0.1 0.1 0.2 0 0.1 0 0.1-0.1 0.1-0.1 0.1 0 0.1 0 0.2 0 0-0.1 0 0 0.2-0.1 0.3-0.1 0.1-0.3 0.1-0.1 0-0.2 0 0 0 0 0.1-0.2-0.1-0.3-0.1-0.1 0-0.1 0-0.1-0.1-0.2-0.2 0 0 0 0c-0.6-0.6-1.2-0.7-2.3-0.9-1.8-0.2-4.3-0.5-7.5-4q-0.8-0.9-1.4-1.8-0.7 0.9-1.5 1.8c-3.2 3.5-5.7 3.8-7.5 4-1.1 0.1-1.7 0.2-2.3 0.8q0 0 0 0-0.1 0.1-0.2 0.2 0 0-0.1 0-0.1 0.1-0.3 0.1 0 0 0 0-0.1 0-0.2-0.1 0 0 0 0-0.2 0-0.3-0.1 0 0 0 0-0.1-0.1-0.2-0.2 0-0.1 0-0.1 0-0.1 0-0.2-0.1 0-0.1-0.1 0 0 0 0 0-0.2 0.1-0.3c0.2-0.7 0-1.3-0.4-2.4-0.7-1.6-1.7-4-0.3-8.5q0.4-1.1 0.9-2.1-1.1-0.1-2.3-0.4c-4.6-1-6.1-3-7.2-4.5-0.7-0.9-1.1-1.4-1.9-1.5q0-0.1 0-0.1-0.1 0-0.2 0-0.1-0.1-0.1-0.1-0.1-0.1-0.1-0.1-0.1-0.1-0.1-0.1-0.1-0.1-0.1-0.2 0 0 0-0.1zm23.4 12.8c-2.1-4-0.4-6.5 0.3-7.4q0-0.1 0-0.1c0.5-0.7 0.3-1.5 0.2-1.9-0.5 0.9-0.8 1.9-0.8 2.2 0.1 0.5-0.1 0.9-0.6 1q0 0-0.1 0c-0.4 0-0.7-0.3-0.8-0.6-0.1-0.4 0-0.9 0.1-1.4-0.4 0.4-0.8 0.7-1.1 0.8q-0.2 0-0.3 0c-0.3 0-0.6-0.2-0.7-0.6-0.2-0.4 0.1-0.8 0.5-1 0.3 0 1-0.8 1.5-1.7-0.4 0.1-1.2 0.3-1.5 1.1q0 0-0.1 0c-0.5 1.2-1.9 3.8-6.3 3.9q-0.6 1.2-1 2.6c-1.3 4-0.5 5.9 0.1 7.4 0.3 0.6 0.5 1.1 0.6 1.7 0.6-0.2 1.2-0.2 1.8-0.3 1.7-0.2 3.7-0.5 6.5-3.5q1.1-1.2 1.7-2.2zm1-14.7q-0.4 0-0.8 0.2c-0.5 0.2-0.8 0.6-1 1.1-0.1 0.4-0.1 0.9 0.1 1.4 0.3 0.4 0.6 0.8 1.1 0.9 0.5 0.2 1 0.1 1.4-0.1 0.5-0.2 0.8-0.6 1-1.1 0.1-0.4 0.1-0.9-0.1-1.4-0.2-0.4-0.6-0.8-1.1-0.9q-0.3-0.1-0.6-0.1zm9.1 20.4c0.6 0.1 1.2 0.2 1.8 0.4 0.1-0.6 0.3-1.1 0.6-1.7 0.6-1.5 1.4-3.4 0.2-7.4q-0.6-1.7-1.3-3c-1.9-3.4-4.2-3.2-5.3-3.1q-0.7 0-1.3-0.2 0.3 0.3 0.5 0.4c0.4 0.1 0.7 0.6 0.5 1-0.1 0.3-0.4 0.5-0.7 0.5q-0.2 0-0.3 0c-0.4-0.1-0.7-0.4-1.1-0.8 0.1 0.5 0.2 1 0.1 1.4-0.1 0.4-0.4 0.6-0.8 0.6q-0.1 0-0.2 0c-0.4-0.1-0.7-0.5-0.6-1q0.1-0.1 0-0.5-0.2 0.5-0.5 1.1 0 0-0.1 0.1c-0.6 0.9-1.9 2.7 0.1 6.1q0.7 1.3 1.9 2.6c2.8 3.1 4.8 3.3 6.5 3.5zm5.3-23.7q-1.5-0.4-2.8-0.4c-2.4 3.8-5.4 3.5-6.6 3.4-0.8 0-1.5 0.5-1.7 0.9 1-0.1 2-0.3 2.2-0.5 0.4-0.3 0.9-0.3 1.2 0 0.3 0.4 0.3 0.9-0.1 1.2-0.3 0.2-0.7 0.4-1.2 0.6 0.5 0.1 0.9 0.3 1.2 0.6 0.4 0.3 0.4 0.8 0.1 1.1q-0.3 0.2-0.6 0.2-0.3 0-0.6-0.2c-0.2-0.2-1.3-0.4-2.3-0.4 0.3 0.3 0.9 0.9 1.8 0.8 1.8-0.2 4.4 0.1 6.6 3.5q1.2-0.1 2.8-0.4c4-0.9 5.2-2.5 6.3-3.8 0.3-0.5 0.7-1 1.1-1.4-0.4-0.4-0.8-0.8-1.1-1.3-1-1.4-2.3-3-6.3-3.9zm-13.6-7.4q0 0.1-0.1 0.1c-2 3.3-0.6 5.2 0 6.2q0.4 0.5 0.5 1.1 0.1-0.4 0.1-0.5c-0.1-0.5 0.1-0.9 0.6-1 0.4-0.1 0.8 0.2 0.9 0.6 0.1 0.4 0 0.9-0.1 1.4 0.4-0.4 0.8-0.7 1.2-0.8 0.4-0.1 0.8 0.1 1 0.6 0.1 0.4-0.2 0.8-0.6 1q-0.1 0-0.4 0.3c0.4-0.1 0.8-0.2 1.2-0.2 1.1 0.1 3.4 0.3 5.4-3q0.7-1.3 1.3-3c1.2-4 0.4-5.9-0.2-7.4-0.3-0.6-0.5-1.1-0.6-1.7-0.6 0.2-1.2 0.2-1.8 0.3-1.6 0.2-3.7 0.5-6.5 3.5q-1.2 1.3-1.9 2.5zm-9.9-6c-0.6-0.1-1.2-0.2-1.8-0.4-0.1 0.6-0.3 1.1-0.5 1.7-0.7 1.5-1.5 3.4-0.3 7.4q0.6 1.7 1.3 3c1.9 3.4 4.2 3.2 5.3 3.1q0 0 0 0 0.7 0 1.3 0.2-0.3-0.3-0.5-0.4c-0.4-0.1-0.6-0.6-0.5-1 0.1-0.4 0.6-0.6 1-0.5 0.4 0.1 0.8 0.4 1.1 0.8-0.1-0.5-0.2-1-0.1-1.4 0.1-0.4 0.6-0.7 1-0.6 0.4 0.1 0.7 0.5 0.6 1-0.1 0.3 0.2 1.2 0.7 2.2 0.2-0.4 0.4-1.2-0.1-1.9-0.7-1-2.4-3.5-0.3-7.5q-0.7-1.1-1.7-2.2c-2.8-3.1-4.8-3.3-6.5-3.5zm-12.7 18.5c0.4 0.4 0.8 0.8 1.2 1.3 0.9 1.4 2.2 3 6.2 3.9q1.8 0.4 3.2 0.4c4 0.1 4.9-2 5.4-3q0.3-0.6 0.8-1-0.4 0.1-0.5 0.2-0.3 0.2-0.6 0.2-0.3 0-0.6-0.2c-0.3-0.4-0.3-0.9 0.1-1.2 0.3-0.3 0.7-0.4 1.2-0.6-0.5-0.1-0.9-0.3-1.2-0.6-0.3-0.3-0.4-0.8-0.1-1.1 0.3-0.3 0.9-0.3 1.2 0 0.2 0.2 1.3 0.4 2.3 0.4-0.3-0.3-0.9-0.9-1.8-0.8q0 0 0 0c-1.2 0.1-4.2 0.3-6.5-3.5q-1.3 0-2.9 0.4c-4 0.8-5.2 2.5-6.2 3.8-0.4 0.5-0.8 1-1.2 1.4z"/></svg>