<svg version="1.2" xmlns="http://www.w3.org/2000/svg" viewBox="0 0 96 96" width="96" height="96">
	<style>
		tspan { white-space:pre } 
		.s0 { fill: #d7f0ff } 
	</style>
	<g>
		<path class="s0" d="m46.95 14q-0.63 0.02-1.19 0.41l-38 30c-0.88 0.7-1 1.99-0.35 2.84 0.65 0.83 2.02 0.97 2.85 0.31l36.75-29 36.75 29c0.82 0.66 2.16 0.52 2.81-0.31 0.65-0.82 0.58-2.19-0.31-2.84l-38-30q-0.68-0.43-1.31-0.41zm-24.94 26.91l-4 3.15v31.94q0 0.4 0.15 0.77 0.15 0.36 0.43 0.64 0.29 0.29 0.65 0.44 0.37 0.15 0.77 0.15h19q0.4 0 0.76-0.15 0.37-0.15 0.65-0.44 0.28-0.28 0.44-0.64 0.15-0.37 0.15-0.77v-12c0-3.36 2.64-6 6-6 3.36 0 6 2.64 6 6v12q0 0.4 0.15 0.77 0.15 0.36 0.43 0.64 0.29 0.29 0.65 0.44 0.37 0.15 0.77 0.15h19q0.4 0 0.76-0.15 0.37-0.15 0.65-0.44 0.28-0.28 0.44-0.64 0.15-0.37 0.15-0.77v-31.94l-4-3.15v33.09h-15v-10c0-5.51-4.5-10-10-10-5.51 0-10 4.49-10 10v10h-15z"/>
	</g>
</svg>