<svg version="1.2" xmlns="http://www.w3.org/2000/svg" viewBox="0 0 96 96" width="96" height="96">
	<style>
		tspan { white-space:pre } 
		.s0 { fill: #d7f0ff } 
	</style>
	<g>
		<path fill-rule="evenodd" class="s0" d="m82 47.75c0 8.86-3.21 17.35-9.06 23.97v8.87c0 1.12-0.54 2.16-1.44 2.8-0.89 0.62-2.03 0.77-3.05 0.41l-8.07-2.88c-4.63 2.04-9.55 3.08-14.63 3.08-19.99 0-36.25-16.26-36.25-36.25 0-19.99 16.26-36.25 36.25-36.25 6.7 0 13.24 1.84 18.92 5.32 0.71 0.44 0.93 1.37 0.49 2.08-0.43 0.71-1.36 0.93-2.07 0.5-5.21-3.19-11.2-4.88-17.34-4.88-18.32 0-33.23 14.91-33.23 33.23 0 18.32 14.91 33.23 33.23 33.23 4.85 0 9.54-1.03 13.93-3.06 0.36-0.17 0.77-0.19 1.14-0.06l8.65 3.1q0.15 0.05 0.29-0.04c0.06-0.04 0.16-0.14 0.16-0.33v-9.44c0-0.38 0.14-0.74 0.39-1.02 5.59-6.13 8.67-14.08 8.67-22.38 0-8.3-3.08-16.25-8.67-22.38-0.56-0.62-0.52-1.57 0.1-2.13 0.62-0.57 1.57-0.52 2.13 0.09 6.1 6.69 9.46 15.36 9.46 24.42zm-19.64 1.51h-33.22c-0.84 0-1.51-0.67-1.51-1.51 0-0.84 0.67-1.51 1.51-1.51h33.22c0.84 0 1.52 0.67 1.52 1.51 0 0.84-0.68 1.51-1.52 1.51zm-9.06 7.55c0.84 0 1.51 0.68 1.51 1.51 0 0.84-0.67 1.51-1.51 1.51h-24.16c-0.84 0-1.51-0.67-1.51-1.51 0-0.83 0.67-1.51 1.51-1.51zm-25.68-19.63c0-0.84 0.67-1.51 1.51-1.51h30.21c0.83 0 1.51 0.67 1.51 1.51 0 0.83-0.68 1.51-1.51 1.51h-30.21c-0.84 0-1.51-0.68-1.51-1.51z"/>
	</g>
</svg>