<svg version="1.2" xmlns="http://www.w3.org/2000/svg" viewBox="0 0 96 96" width="96" height="96"><style>.a{fill:#d7f0ff}</style><path class="a" d="m87.1 72c0.1 0.2 0 0.5-0.1 0.7q-0.2 0.4-0.6 0.5c-0.8 0.2-1.6 0.6-2 1.3-0.5 0.7-0.6 1.6-0.4 2.4 0 0.2 0 0.5-0.2 0.7q-0.2 0.4-0.6 0.5l-3.6 0.7c-0.6 0.2-1.1-0.2-1.2-0.7-0.5-2.1-2.5-3.5-4.6-3-2.1 0.4-3.5 2.5-3 4.6q0 0.4-0.2 0.8-0.2 0.3-0.6 0.4l-2.3 0.5q0 0 0 0l-2.9 0.6c-0.5 0.1-1.1-0.2-1.2-0.8-0.4-2.1-2.5-3.4-4.6-3-2.1 0.5-3.4 2.5-3 4.6q0.1 0.4-0.1 0.8-0.3 0.3-0.7 0.4l-2.3 0.5q0 0 0 0l-2.8 0.6c-0.6 0.1-1.1-0.2-1.2-0.7-0.3-1.1-0.8-1.9-1.7-2.5-0.9-0.6-1.9-0.8-2.9-0.5-2.1 0.4-3.5 2.5-3 4.6q0 0.4-0.2 0.7-0.2 0.4-0.6 0.5l-2.3 0.5q0 0 0 0l-2.9 0.6c-0.6 0.1-1.1-0.3-1.2-0.8-0.4-2.1-2.5-3.4-4.6-3-2.1 0.4-3.5 2.5-3 4.6 0.1 0.6-0.2 1.1-0.8 1.2l-3.6 0.8q-0.1 0-0.2 0c-0.5 0-0.9-0.3-1-0.8-0.1-0.8-0.6-1.5-1.3-2-0.7-0.4-1.6-0.6-2.4-0.4q-0.4 0.1-0.7-0.2-0.4-0.2-0.5-0.6l-0.7-3.6c-0.2-0.5 0.2-1.1 0.7-1.2 2.1-0.4 3.5-2.5 3-4.6-0.4-2.1-2.5-3.4-4.6-3-0.5 0.1-1.1-0.2-1.2-0.8l-0.6-2.8q0 0 0-0.1l-0.5-2.3q-0.1-0.4 0.2-0.7 0.2-0.3 0.6-0.4c1-0.3 1.9-0.9 2.4-1.7 0.6-0.9 0.8-1.9 0.6-3-0.2-1-0.8-1.8-1.7-2.4-0.9-0.6-1.9-0.8-2.9-0.6-0.6 0.2-1.1-0.2-1.2-0.7l-0.5-2.3q0 0 0-0.1l-0.6-2.8c-0.1-0.6 0.2-1.1 0.8-1.2 2.1-0.4 3.4-2.5 3-4.6-0.5-2.1-2.6-3.5-4.7-3-0.5 0.1-1-0.2-1.1-0.8l-0.7-2.9q0 0 0 0l-0.4-2.3c-0.2-0.5 0.2-1 0.7-1.2 2.1-0.4 3.5-2.5 3-4.6-0.2-1-0.8-1.9-1.7-2.4-0.8-0.6-1.9-0.8-2.9-0.6-0.5 0.1-1.1-0.2-1.2-0.7l-0.8-3.7q0-0.4 0.2-0.7 0.2-0.4 0.6-0.4c0.8-0.2 1.5-0.7 2-1.4 0.5-0.7 0.6-1.5 0.4-2.4 0-0.2 0-0.5 0.2-0.7q0.2-0.4 0.6-0.4l3.6-0.8q0.4-0.1 0.8 0.1 0.3 0.3 0.4 0.7c0.2 1 0.8 1.8 1.7 2.4 0.9 0.6 1.9 0.8 2.9 0.5 2.1-0.4 3.5-2.5 3-4.6q-0.1-0.4 0.2-0.7 0.2-0.4 0.6-0.5l2.3-0.4 2.9-0.7c0.5-0.1 1 0.3 1.2 0.8 0.4 2.1 2.5 3.5 4.6 3 1-0.2 1.9-0.8 2.4-1.7 0.6-0.9 0.8-1.9 0.6-2.9q-0.1-0.4 0.1-0.8 0.2-0.3 0.6-0.4l2.3-0.5q0.1 0 0.1 0l2.8-0.6c0.6-0.1 1.1 0.2 1.2 0.8 0.5 2.1 2.5 3.4 4.6 3 1.1-0.2 1.9-0.8 2.5-1.7 0.6-0.9 0.7-1.9 0.5-2.9 0-0.3 0-0.6 0.2-0.8q0.2-0.3 0.6-0.4l2.3-0.5q0 0 0 0l2.9-0.6c0.5-0.2 1.1 0.2 1.2 0.7 0.2 1 0.8 1.9 1.7 2.5 0.8 0.6 1.9 0.7 2.9 0.5 1-0.2 1.9-0.8 2.5-1.7 0.5-0.8 0.7-1.9 0.5-2.9-0.1-0.5 0.2-1.1 0.8-1.2l3.6-0.7c0.5-0.2 1 0.2 1.2 0.7 0.1 0.8 0.6 1.5 1.3 2 0.7 0.5 1.6 0.6 2.4 0.4q0.4 0 0.7 0.2 0.4 0.2 0.5 0.6l0.7 3.6c0.1 0.3 0 0.6-0.1 0.8q-0.2 0.3-0.6 0.4c-1.1 0.2-1.9 0.8-2.5 1.7-0.6 0.9-0.7 1.9-0.5 2.9 0.4 2.1 2.5 3.5 4.6 3q0.4-0.1 0.7 0.2 0.4 0.2 0.5 0.6l0.6 2.9c0.1 0.5-0.3 1-0.8 1.1-0.5 0.2-1.1-0.2-1.2-0.7l-0.4-2c-1.2 0.1-2.4-0.3-3.4-1-1.4-0.8-2.3-2.1-2.6-3.7-0.3-1.5 0-3.1 0.8-4.4 0.7-1 1.7-1.8 2.8-2.3l-0.4-1.8c-1 0-2-0.3-2.9-0.8-0.8-0.6-1.5-1.4-1.9-2.3l-1.8 0.4c0.1 2.8-1.8 5.4-4.7 6-1.5 0.3-3.1 0-4.4-0.8-1.1-0.7-1.8-1.7-2.3-2.8l-1.4 0.3q0 0 0 0l-2 0.4c0.1 2.8-1.8 5.4-4.6 6-2.9 0.6-5.7-0.9-6.7-3.6l-1.5 0.3v0.1l-1.9 0.4c0 1.2-0.3 2.4-1 3.4-0.8 1.3-2.2 2.2-3.7 2.6-2.8 0.6-5.7-1-6.7-3.6l-1.4 0.3q0 0 0 0l-2 0.4c0.1 2.8-1.8 5.4-4.7 6-1.5 0.3-3.1 0-4.4-0.8-1-0.7-1.8-1.7-2.3-2.8l-1.8 0.4c0 1-0.3 2-0.8 2.9-0.6 0.8-1.4 1.5-2.3 1.9l0.4 1.8c1.2 0 2.4 0.3 3.4 1 1.3 0.8 2.3 2.2 2.6 3.7 0.6 2.8-1 5.6-3.6 6.7l0.4 2q0 0 0 0l0.3 1.4c1.2-0.1 2.4 0.3 3.5 0.9 1.3 0.9 2.2 2.2 2.5 3.8 0.6 2.8-0.9 5.6-3.6 6.6l0.3 1.4q0 0.1 0 0.1l0.5 2c1.2-0.1 2.4 0.2 3.4 0.9 1.3 0.9 2.2 2.2 2.6 3.7 0.3 1.5 0 3.1-0.9 4.5-0.6 1-1.6 1.8-2.7 2.2l0.4 2q0 0 0 0l0.3 1.4c2.8-0.1 5.4 1.8 6 4.7 0.6 2.8-1 5.6-3.6 6.7l0.4 1.8h0.1c2 0 3.9 1.2 4.7 3.1l1.8-0.4c-0.1-2.8 1.8-5.4 4.7-6 2.8-0.6 5.6 1 6.7 3.6l1.4-0.3q0 0 0 0l2-0.4c-0.1-2.8 1.8-5.4 4.6-6 1.6-0.3 3.2 0 4.5 0.8 1 0.7 1.8 1.6 2.2 2.8l1.5-0.3q0 0 0 0l1.9-0.4c-0.1-2.9 1.9-5.4 4.7-6 2.9-0.6 5.7 0.9 6.7 3.5l1.4-0.3 2-0.4c-0.1-2.8 1.8-5.4 4.7-6 2.8-0.6 5.6 1 6.7 3.6l1.8-0.4c0-1 0.3-2 0.8-2.9 0.6-0.8 1.4-1.5 2.3-1.9l-0.4-1.8c-2.8 0.1-5.4-1.8-6-4.7-0.6-2.8 1-5.6 3.6-6.7l-0.4-1.9c-0.1-0.6 0.2-1.1 0.7-1.2 0.6-0.1 1.1 0.2 1.2 0.7l0.6 2.9c0.2 0.6-0.2 1.1-0.7 1.2-2.1 0.4-3.5 2.5-3 4.6 0.4 2.1 2.5 3.5 4.6 3 0.5-0.1 1.1 0.2 1.2 0.8l0.7 3.6zm-70-41.2l46.2-9.8 1.8 8.6c0.1 0.5 0.6 0.9 1.2 0.8 0.5-0.1 0.9-0.7 0.8-1.2l-2.1-9.6q-0.1-0.4-0.4-0.6-0.4-0.2-0.8-0.2l-48.1 10.3c-0.5 0.1-0.9 0.6-0.8 1.2l10.3 48.1c0.1 0.5 0.5 0.8 0.9 0.8q0.1 0 0.2 0l48.2-10.3q0.4-0.1 0.6-0.4 0.2-0.3 0.1-0.8l-2-9.5c-0.1-0.6-0.6-0.9-1.2-0.8-0.5 0.1-0.9 0.6-0.7 1.2l1.8 8.6-46.2 9.8c0 0-9.8-46.2-9.8-46.2zm75.9 16.5c-0.1-0.6-0.6-0.9-1.2-0.8-2.5 0.5-3.6 1.5-4.6 2.3-1 0.8-1.8 1.5-3.8 1.9-2 0.4-3.1 0.1-4.3-0.2-1.3-0.3-2.7-0.7-5.2-0.2-2.4 0.5-3.6 1.5-4.6 2.3-1 0.8-1.8 1.5-3.8 1.9-2 0.4-3.1 0.1-4.3-0.2-1.2-0.3-2.7-0.7-5.2-0.2-2.4 0.5-3.6 1.5-4.6 2.3-1 0.8-1.8 1.5-3.8 1.9-0.5 0.1-0.9 0.6-0.8 1.2 0.1 0.5 0.5 0.8 1 0.8q0.1 0 0.2 0c2.5-0.6 3.6-1.5 4.7-2.3 0.9-0.8 1.8-1.5 3.8-1.9 2-0.5 3-0.2 4.2 0.1 1.3 0.4 2.7 0.8 5.2 0.3 2.5-0.6 3.6-1.5 4.6-2.4 1-0.7 1.8-1.4 3.8-1.9 2-0.4 3.1-0.1 4.3 0.2 1.3 0.4 2.7 0.8 5.2 0.2 2.4-0.5 3.6-1.4 4.6-2.3 1-0.7 1.8-1.4 3.8-1.9 0.6-0.1 0.9-0.6 0.8-1.1zm-11.6-5.8c-2 0.4-3 0.1-4.2-0.2-1.3-0.4-2.8-0.8-5.2-0.2-2.5 0.5-3.7 1.4-4.7 2.3-0.9 0.8-1.8 1.4-3.8 1.9-2 0.4-3 0.1-4.2-0.2-1.3-0.4-2.7-0.8-5.2-0.2-2.5 0.5-3.6 1.4-4.7 2.3-0.9 0.8-1.8 1.5-3.8 1.9-0.5 0.1-0.9 0.6-0.7 1.2 0.1 0.4 0.5 0.8 0.9 0.8q0.1 0 0.2-0.1c2.5-0.5 3.7-1.4 4.7-2.3 1-0.8 1.8-1.4 3.8-1.9 2-0.4 3-0.1 4.2 0.2 1.3 0.4 2.8 0.8 5.2 0.2 2.5-0.5 3.7-1.4 4.7-2.3 0.9-0.8 1.8-1.4 3.8-1.9 2-0.4 3-0.1 4.2 0.2 1.3 0.4 2.7 0.8 5.2 0.2 2.5-0.5 3.6-1.4 4.7-2.3 0.9-0.8 1.8-1.5 3.8-1.9 0.5-0.1 0.8-0.6 0.7-1.2-0.1-0.5-0.6-0.9-1.2-0.7-2.4 0.5-3.6 1.4-4.6 2.3-1 0.8-1.8 1.4-3.8 1.9zm-6.2-9.4c-1.3-0.4-2.7-0.8-5.2-0.3-2.5 0.6-3.6 1.5-4.6 2.4-1 0.7-1.9 1.4-3.8 1.9-2 0.4-3.1 0.1-4.3-0.2-1.3-0.4-2.7-0.8-5.2-0.3-2.5 0.6-3.6 1.5-4.6 2.4-1 0.7-1.8 1.4-3.8 1.9-0.6 0.1-0.9 0.6-0.8 1.1 0.1 0.5 0.5 0.8 1 0.8q0.1 0 0.2 0c2.5-0.5 3.6-1.5 4.6-2.3 1-0.8 1.8-1.5 3.8-1.9 2-0.4 3.1-0.1 4.3 0.2 1.3 0.3 2.7 0.7 5.2 0.2 2.4-0.5 3.6-1.5 4.6-2.3 1-0.8 1.8-1.5 3.8-1.9 2-0.4 3.1-0.1 4.3 0.2 1.2 0.3 2.7 0.7 5.2 0.2 2.4-0.5 3.6-1.5 4.6-2.3 1-0.8 1.8-1.5 3.8-1.9 0.5-0.1 0.9-0.6 0.8-1.2-0.2-0.5-0.7-0.9-1.2-0.8-2.5 0.6-3.7 1.5-4.7 2.3-0.9 0.8-1.8 1.5-3.8 1.9-2 0.5-3 0.2-4.2-0.1z"/></svg>